<svg width="30" height="30" viewBox="0 0 30 30" fill="none" xmlns="http://www.w3.org/2000/svg">
<path d="M6.53033 23.1473C6.23744 22.8544 6.23744 22.3796 6.53033 22.0867L22.0867 6.53033C22.3796 6.23743 22.8544 6.23743 23.1473 6.53033C23.4402 6.82322 23.4402 7.29809 23.1473 7.59099L7.59099 23.1473C7.2981 23.4402 6.82322 23.4402 6.53033 23.1473Z" fill="#333333"/>
<path d="M6.53022 6.61915C6.82311 6.32626 7.29798 6.32626 7.59088 6.61915L23.1472 22.1755C23.4401 22.4684 23.4401 22.9433 23.1472 23.2362C22.8543 23.5291 22.3795 23.5291 22.0866 23.2362L6.53022 7.67981C6.23732 7.38692 6.23732 6.91204 6.53022 6.61915Z" fill="#333333"/>
</svg>
