<svg width="24" height="24" viewBox="0 0 24 24" fill="none" xmlns="http://www.w3.org/2000/svg">
<path d="M22.0822 11.3953C21.2583 9.65954 20.2778 8.24391 19.1408 7.14844L17.9483 8.34094C18.9207 9.27024 19.7678 10.4859 20.5002 12C18.5502 16.0359 15.7822 17.9531 11.9994 17.9531C10.8639 17.9531 9.81808 17.7783 8.86182 17.4286L7.56972 18.7207C8.89784 19.334 10.3744 19.6406 11.9994 19.6406C16.5041 19.6406 19.865 17.2945 22.0822 12.6023C22.1714 12.4136 22.2176 12.2075 22.2176 11.9988C22.2176 11.7901 22.1714 11.584 22.0822 11.3953ZM20.5923 3.88032L19.5932 2.88C19.5757 2.86257 19.5551 2.84874 19.5323 2.8393C19.5095 2.82987 19.4851 2.82501 19.4605 2.82501C19.4359 2.82501 19.4115 2.82987 19.3887 2.8393C19.3659 2.84874 19.3453 2.86257 19.3278 2.88L16.7645 5.44219C15.3512 4.72032 13.7628 4.35938 11.9994 4.35938C7.49472 4.35938 4.13378 6.70547 1.91659 11.3977C1.82747 11.5864 1.78125 11.7925 1.78125 12.0012C1.78125 12.2099 1.82747 12.416 1.91659 12.6047C2.80237 14.4703 3.86878 15.9657 5.11581 17.0909L2.63565 19.5703C2.60052 19.6055 2.58078 19.6531 2.58078 19.7029C2.58078 19.7526 2.60052 19.8002 2.63565 19.8354L3.6362 20.8359C3.67136 20.8711 3.71903 20.8908 3.76874 20.8908C3.81845 20.8908 3.86612 20.8711 3.90128 20.8359L20.5923 4.14563C20.6097 4.12821 20.6236 4.10754 20.633 4.08477C20.6424 4.06201 20.6473 4.03761 20.6473 4.01297C20.6473 3.98833 20.6424 3.96393 20.633 3.94117C20.6236 3.91841 20.6097 3.89773 20.5923 3.88032ZM3.49862 12C5.45097 7.96407 8.21893 6.04688 11.9994 6.04688C13.2777 6.04688 14.4399 6.26625 15.4944 6.71227L13.8467 8.35993C13.0664 7.94359 12.173 7.78907 11.2982 7.91917C10.4234 8.04927 9.61352 8.4571 8.98813 9.08248C8.36275 9.70787 7.95492 10.5177 7.82482 11.3925C7.69472 12.2673 7.84924 13.1608 8.26557 13.9411L6.31042 15.8963C5.22831 14.9412 4.2955 13.6472 3.49862 12ZM9.28065 12C9.28106 11.5867 9.37896 11.1794 9.56638 10.811C9.75381 10.4427 10.0255 10.1237 10.3593 9.8801C10.6932 9.63648 11.0798 9.47504 11.4877 9.4089C11.8957 9.34276 12.3135 9.37379 12.7072 9.49946L9.40511 12.8016C9.32234 12.5424 9.28035 12.272 9.28065 12Z" fill="#7D7D7D"/>
<path d="M11.9059 14.625C11.8248 14.625 11.7449 14.6212 11.6657 14.614L10.4277 15.8519C11.1723 16.1371 11.9836 16.2005 12.7634 16.0344C13.5432 15.8683 14.2583 15.4799 14.8221 14.9161C15.3858 14.3523 15.7743 13.6373 15.9403 12.8575C16.1064 12.0776 16.043 11.2664 15.7579 10.5218L14.5199 11.7598C14.5272 11.839 14.5309 11.9189 14.5309 12C14.5311 12.3448 14.4634 12.6862 14.3315 13.0048C14.1996 13.3233 14.0063 13.6128 13.7625 13.8566C13.5187 14.1004 13.2293 14.2937 12.9107 14.4256C12.5921 14.5574 12.2507 14.6252 11.9059 14.625Z" fill="#7D7D7D"/>
</svg>
