<svg width="30" height="30" viewBox="0 0 30 30" fill="none" xmlns="http://www.w3.org/2000/svg">
<path id="Vector" d="M11.6677 2.6171e-09C13.8902 -4.70599e-05 16.0665 0.63464 17.9406 1.82939C19.8146 3.02414 21.3084 4.72925 22.2463 6.74411C23.1841 8.75898 23.527 10.9998 23.2345 13.2029C22.9421 15.406 22.0265 17.4797 20.5954 19.1802L29.7098 28.2955C29.8871 28.4742 29.9905 28.7132 29.9994 28.9647C30.0082 29.2163 29.9219 29.4619 29.7576 29.6526C29.5933 29.8433 29.3632 29.9651 29.1131 29.9936C28.863 30.0221 28.6113 29.9552 28.4083 29.8063L28.2963 29.709L19.1806 20.5949C17.7449 21.803 16.0389 22.6471 14.2075 23.0555C12.376 23.4638 10.4731 23.4245 8.66004 22.9408C6.84702 22.457 5.17742 21.5432 3.79284 20.2768C2.40826 19.0104 1.34956 17.4287 0.706519 15.6659C0.0634818 13.9032 -0.144916 12.0114 0.0990012 10.1509C0.342919 8.29046 1.03196 6.51628 2.10767 4.97886C3.18338 3.44143 4.61404 2.18611 6.27829 1.31937C7.94254 0.452634 9.79129 4.72203e-05 11.6677 2.6171e-09ZM11.6677 2.00015C9.10367 2.00015 6.64463 3.01868 4.83157 4.83168C3.01851 6.64467 1.99994 9.10361 1.99994 11.6676C1.99994 14.2315 3.01851 16.6905 4.83157 18.5035C6.64463 20.3165 9.10367 21.335 11.6677 21.335C14.2318 21.335 16.6908 20.3165 18.5039 18.5035C20.317 16.6905 21.3355 14.2315 21.3355 11.6676C21.3355 9.10361 20.317 6.64467 18.5039 4.83168C16.6908 3.01868 14.2318 2.00015 11.6677 2.00015Z" fill="#203335"/>
</svg>
